<?xml version="1.0" standalone="no"?>
<!DOCTYPE svg PUBLIC "-//W3C//DTD SVG 20010904//EN"
 "http://www.w3.org/TR/2001/REC-SVG-20010904/DTD/svg10.dtd">
<svg version="1.0" xmlns="http://www.w3.org/2000/svg"
 width="1920.000000pt" height="1080.000000pt" viewBox="0 0 1920.000000 1080.000000"
 preserveAspectRatio="xMidYMid meet">
<metadata>
Created by potrace 1.16, written by Peter Selinger 2001-2019
</metadata>
<g transform="translate(0.000000,1080.000000) scale(0.100000,-0.100000)"
fill="#000000" stroke="none">
<path d="M0 5400 l0 -5400 7112 0 c3911 0 7109 2 7106 5 -4 5 -228 103 -433
190 -55 23 -125 54 -155 68 -30 13 -122 54 -205 90 -82 36 -289 126 -460 200
-170 74 -463 201 -650 282 -187 81 -358 155 -380 165 -142 63 -227 100 -445
193 -696 300 -785 346 -909 467 -95 93 -126 152 -125 235 1 76 9 118 23 123 6
2 9 8 5 13 -3 5 -2 14 2 21 5 8 9 7 13 -5 6 -15 8 -14 19 4 10 15 10 19 1 14
-7 -5 -10 -3 -8 4 3 7 8 12 12 11 4 0 36 24 70 55 110 100 272 177 557 265 91
27 208 63 260 79 52 17 190 57 305 91 116 34 359 107 540 162 182 55 339 102
350 105 11 3 70 20 130 38 61 18 126 38 145 43 19 5 109 33 200 60 91 28 327
98 525 157 198 59 448 134 555 166 238 73 407 124 480 145 30 9 66 20 80 25
14 5 153 46 310 93 157 46 407 120 555 164 367 109 864 254 1190 347 287 82
560 162 585 172 8 3 19 5 23 4 4 0 21 6 38 15 17 8 32 14 34 12 2 -2 -16 -24
-38 -49 l-42 -46 -290 -83 c-159 -45 -351 -99 -425 -120 -254 -71 -795 -229
-1305 -380 -280 -84 -575 -171 -655 -195 -80 -24 -287 -86 -460 -138 -173 -52
-331 -100 -350 -105 -48 -14 -302 -90 -485 -145 -379 -114 -468 -141 -575
-172 -63 -19 -169 -50 -235 -70 -66 -20 -158 -48 -205 -62 -361 -106 -833
-250 -917 -278 -56 -19 -107 -35 -115 -35 -19 0 -275 -84 -346 -114 -251 -106
-373 -265 -326 -424 7 -24 10 -50 8 -57 -3 -7 3 -15 14 -17 10 -3 29 -21 42
-39 l24 -34 -44 39 c-56 49 -62 59 -62 102 0 19 -4 31 -9 28 -5 -3 -9 -25 -9
-48 0 -89 118 -195 335 -301 114 -56 522 -232 1580 -680 336 -142 725 -308
1487 -634 l518 -221 2315 0 2315 0 0 5400 0 5400 -9600 0 -9600 0 0 -5400z
m16880 3494 c391 -32 821 -243 1109 -543 653 -682 666 -1721 28 -2364 -229
-232 -381 -317 -922 -516 -147 -54 -416 -136 -518 -158 -64 -14 -129 -18 -292
-18 -115 0 -235 4 -265 8 -186 28 -395 97 -560 185 -476 253 -806 696 -922
1234 -29 139 -32 463 -5 608 82 437 334 816 702 1053 105 67 377 202 600 297
479 204 677 245 1045 214z m-14527 -95 c40 -15 57 -28 61 -44 3 -13 8 -30 12
-38 4 -11 -8 -19 -44 -31 -41 -14 -58 -15 -103 -5 -128 27 -142 100 -24 128
22 5 41 9 42 10 0 1 26 -8 56 -20z m630 -140 c29 -15 26 -12 37 -48 8 -29 6
-32 -23 -47 -23 -13 -46 -15 -95 -11 -75 7 -91 17 -84 53 8 46 114 79 165 53z
m392 -102 c48 -27 57 -59 23 -81 -31 -20 -133 -32 -142 -17 -4 6 -15 11 -25
11 -26 0 -44 25 -36 50 7 22 34 40 80 51 48 11 58 10 100 -14z m395 -112 c34
-30 23 -65 -25 -82 -72 -25 -188 4 -180 45 2 9 4 20 4 24 1 6 36 21 53 23 3 0
10 4 15 8 14 15 111 2 133 -18z m-1527 -10 c11 -5 17 -18 17 -40 0 -27 -6 -35
-32 -48 -45 -21 -172 -28 -140 -8 10 6 10 10 -3 21 -20 17 -19 39 5 65 16 17
30 21 77 19 32 0 66 -4 76 -9z m1923 -82 c12 -8 24 -23 27 -33 12 -48 -58 -75
-145 -57 -73 16 -92 33 -75 67 23 46 138 59 193 23z m-1577 -12 c6 17 41 -23
41 -46 0 -32 -20 -45 -84 -51 -87 -9 -137 36 -88 78 25 22 41 25 87 17 24 -4
41 -3 44 2z m-1169 -100 c17 -5 26 -15 28 -32 4 -34 -16 -49 -70 -54 -23 -2
-55 -7 -70 -11 -39 -9 -90 29 -86 64 4 31 28 40 113 40 33 0 71 -3 85 -7z
m1450 -1 c0 -6 9 -6 25 0 27 10 73 9 93 -4 20 -12 14 -54 -11 -71 -59 -38
-152 -44 -155 -10 -1 8 -2 26 -3 40 -1 13 -5 22 -10 19 -16 -9 -10 3 8 17 14
12 16 12 8 0 -6 -11 -4 -13 9 -8 10 4 20 7 22 7 3 0 2 5 -1 10 -3 6 -1 10 4
10 6 0 11 -4 11 -10z m1966 -45 c23 -9 33 -19 28 -26 -4 -7 -3 -9 4 -5 23 14
22 -15 -1 -38 -32 -32 -87 -42 -140 -26 -23 7 -48 14 -54 16 -7 2 -13 14 -13
27 0 54 101 84 176 52z m-3064 -73 c24 -10 27 -14 18 -37 -6 -16 -6 -25 0 -25
6 0 10 -5 10 -10 0 -6 -11 -8 -26 -4 -17 4 -25 3 -21 -3 3 -5 0 -10 -8 -10 -8
0 -15 4 -15 9 0 4 -16 2 -35 -7 -20 -8 -34 -11 -31 -6 3 4 -17 13 -44 20 -37
10 -50 18 -51 32 -1 10 -2 25 -3 32 -1 6 -5 15 -11 19 -5 5 4 6 20 3 17 -3 43
-2 60 3 31 9 93 2 137 -16z m1577 16 c11 -11 13 -10 7 2 -5 9 -2 9 7 -2 8 -10
17 -15 20 -12 3 4 9 -6 13 -22 6 -22 2 -32 -20 -51 -32 -27 -69 -38 -93 -27
-10 4 -21 7 -25 6 -12 -3 -19 57 -9 76 6 11 7 22 3 26 -3 4 1 4 9 1 8 -3 26
-1 40 4 32 13 33 13 48 -1z m1906 -40 c22 -6 44 -12 48 -12 10 -1 27 -28 27
-44 0 -30 -139 -68 -155 -42 -9 15 -61 12 -74 -3 -6 -8 -7 -18 -3 -22 4 -5 -1
-5 -11 -2 -10 4 -28 7 -39 7 -14 0 -18 5 -15 15 4 8 2 17 -4 20 -16 10 0 25
27 25 17 0 23 -4 18 -12 -4 -6 -3 -8 3 -5 6 4 16 20 23 36 9 24 21 32 54 40
57 12 56 12 101 -1z m-3120 -65 c41 -19 51 -58 13 -49 -13 3 -17 3 -10 0 10
-5 10 -9 1 -20 -13 -16 -33 -19 -24 -4 9 14 -125 1 -143 -13 -9 -7 -20 -3 -37
13 -14 13 -25 28 -25 32 0 19 27 35 75 45 75 16 111 15 150 -4z m3583 -54 c49
-14 68 -52 38 -74 -26 -19 -95 -26 -151 -16 -58 11 -65 8 -58 -19 4 -17 0 -20
-25 -20 -45 0 -62 10 -62 36 0 28 36 52 53 35 18 -18 25 -13 29 17 2 23 11 30
53 44 28 9 57 15 65 13 8 -2 34 -9 58 -16z m-3187 -66 c50 -30 32 -54 -54 -71
-70 -14 -129 0 -148 34 -14 27 -3 47 21 41 10 -2 24 -1 31 4 24 15 119 10 150
-8z m1658 -2 c27 -23 25 -59 -4 -75 -10 -6 -25 -17 -33 -24 -15 -14 -46 -12
-77 5 -11 6 -24 13 -29 15 -5 1 -10 17 -10 34 -1 23 3 30 19 32 11 0 21 6 23
11 2 5 9 8 17 5 8 -3 22 -1 32 5 26 15 37 13 62 -8z m1962 -42 c80 -27 83 -63
6 -93 -39 -15 -48 -15 -85 -2 -45 16 -44 16 -67 16 -9 0 -15 9 -15 25 0 21 9
30 43 45 49 23 71 24 118 9z m-2846 -173 c22 -8 41 -21 43 -30 2 -9 9 -14 15
-10 7 3 1 -4 -13 -15 -19 -16 -40 -21 -90 -22 -36 -1 -68 -1 -72 0 -4 0 -18
-3 -32 -9 -19 -7 -26 -5 -31 8 -3 9 -1 18 4 20 6 2 11 8 11 13 0 6 -6 7 -12 3
-9 -5 -9 -2 1 9 7 9 21 17 30 17 9 1 27 7 41 15 32 18 55 18 105 1z m3690 -30
c42 -11 50 -17 50 -37 0 -17 -10 -29 -35 -41 -38 -20 -105 -24 -115 -8 -3 6
-20 10 -36 10 -17 0 -28 -4 -25 -9 13 -20 -7 -41 -38 -41 -38 0 -56 15 -56 47
0 25 14 29 54 13 24 -9 26 -7 26 19 0 24 6 32 38 44 45 19 72 20 137 3z
m-3305 -75 c0 -5 25 -13 56 -17 31 -3 51 -10 44 -14 -7 -4 -9 -16 -5 -29 3
-11 3 -21 -2 -22 -46 -4 -64 -7 -104 -13 -27 -5 -62 -3 -87 4 -35 9 -42 15
-42 35 0 28 10 36 65 51 52 15 75 16 75 5z m-1356 -20 c9 -8 16 -24 14 -35 -3
-18 -13 -22 -85 -30 -70 -7 -86 -6 -108 8 -26 17 -33 44 -15 62 15 15 175 11
194 -5z m5122 -11 c6 -6 30 -14 54 -18 83 -14 80 -63 -5 -88 -46 -13 -62 -14
-86 -4 -16 7 -29 16 -29 21 0 5 -17 9 -39 9 -35 0 -38 -2 -34 -25 4 -20 0 -25
-22 -31 -14 -4 -30 -3 -35 2 -14 14 -1 52 20 57 13 3 16 11 13 30 -5 25 8 35
55 43 8 1 16 5 20 8 9 10 77 7 88 -4z m-4749 -106 c41 -6 59 -28 47 -57 -7
-19 -130 -21 -156 -3 -12 9 -32 16 -44 16 -15 0 -23 8 -26 24 -4 22 -1 26 26
29 33 5 83 2 153 -9z m5272 -33 c3 -5 24 -12 46 -15 46 -8 59 -23 41 -51 -24
-37 -134 -49 -167 -19 -11 10 -27 14 -41 11 -66 -17 -62 49 4 75 44 17 107 16
117 -1z m-3329 -86 c17 -9 30 -23 30 -33 -1 -26 -25 -52 -49 -52 -12 0 -20 -3
-18 -7 3 -5 -30 -6 -74 -3 -61 4 -83 10 -98 25 -18 17 -19 23 -8 45 7 15 25
27 42 31 57 13 146 9 175 -6z m3875 -41 c16 -8 48 -18 72 -21 49 -7 69 -38 37
-57 -54 -32 -143 -39 -172 -13 -10 9 -32 17 -48 17 -73 1 -73 47 1 72 62 21
73 22 110 2z m-3405 -90 c79 -32 33 -91 -62 -79 -29 3 -80 8 -113 9 -33 2 -64
4 -68 5 -4 1 -1 13 7 28 11 22 25 30 67 39 79 17 124 16 169 -2z m4133 -89
c33 -7 61 -16 64 -19 13 -13 -9 -35 -44 -46 -21 -6 -55 -20 -75 -31 -31 -16
-41 -18 -60 -8 -12 6 -39 13 -59 14 -57 5 -79 14 -79 35 0 14 11 22 43 31 23
6 53 17 67 25 32 17 69 17 143 -1z m-1879 -27 c6 -8 30 -19 54 -26 49 -15 62
-36 39 -60 -15 -14 -21 -14 -76 1 -34 9 -77 17 -98 17 -24 0 -45 8 -60 22 -26
24 -29 38 -10 57 16 17 137 9 151 -11z m2419 -98 c31 -11 65 -20 76 -20 28 0
51 -10 51 -23 0 -23 -34 -47 -67 -47 -19 0 -32 -4 -29 -9 3 -5 -7 -14 -22 -20
-22 -9 -45 -9 -106 4 -104 22 -126 31 -126 53 0 33 73 55 98 30 9 -9 12 -8 12
8 0 13 10 24 28 31 15 6 27 11 27 12 1 1 26 -8 58 -19z m573 -150 c26 -11 78
-26 116 -32 77 -14 91 -36 37 -59 -39 -16 -151 1 -215 31 -22 11 -48 20 -57
20 -24 0 -21 26 5 44 30 21 57 20 114 -4z m-1519 -126 c21 -9 46 -20 55 -25 9
-5 36 -11 60 -14 78 -11 88 -15 88 -34 0 -22 -45 -41 -96 -41 -80 0 -237 61
-227 88 5 12 55 41 75 42 4 0 24 -7 45 -16z m609 -169 c10 -8 27 -15 37 -15
10 0 20 -6 22 -12 3 -8 30 -14 72 -16 36 -1 70 -5 74 -8 18 -11 8 -35 -17 -44
-39 -15 -154 -13 -154 3 0 9 -12 11 -39 9 -32 -3 -42 0 -53 17 -8 13 -23 21
-41 21 -22 0 -28 4 -25 17 7 38 87 56 124 28z m-3565 -40 c41 -19 63 -23 96
-18 44 6 50 0 33 -27 -7 -11 -26 -15 -67 -14 -147 2 -253 40 -216 77 15 16
103 6 154 -18z m1740 4 c70 -26 78 -50 25 -76 -33 -15 -38 -15 -103 7 -37 12
-71 27 -75 33 -10 17 2 35 30 46 41 14 60 13 123 -10z m562 -162 c18 -8 49
-17 70 -21 67 -13 59 -59 -13 -71 -39 -7 -157 23 -187 48 -50 39 55 75 130 44z
m2137 -41 c86 -19 80 -41 -20 -80 -8 -4 -28 -15 -45 -26 -30 -19 -85 -20 -145
-1 -14 5 -51 16 -82 26 -71 22 -76 44 -17 71 39 17 42 17 54 1 7 -10 24 -16
41 -16 24 1 25 3 7 6 -37 7 -28 39 15 56 34 14 41 13 87 -5 28 -11 75 -25 105
-32z m-8931 -34 c27 -22 37 -38 39 -66 2 -20 -1 -36 -5 -36 -5 0 -10 -12 -11
-27 -1 -15 -8 -31 -15 -35 -17 -12 -58 0 -78 23 -9 10 -21 19 -28 19 -6 0 -11
5 -11 12 0 6 -6 19 -14 27 -8 9 -17 40 -21 70 l-7 54 57 -6 c43 -4 67 -13 94
-35z m7355 -68 c31 -14 56 -30 56 -36 0 -5 8 -7 17 -4 9 4 40 1 70 -5 104 -24
43 -78 -72 -64 -30 4 -58 11 -61 16 -3 5 -16 9 -29 9 -34 0 -55 10 -55 26 0 8
-6 15 -12 15 -7 1 -17 2 -23 4 -5 1 -16 3 -23 3 -26 3 -7 35 28 48 47 17 40
17 104 -12z m2273 -90 c12 -31 -22 -43 -191 -69 -94 -14 -116 -12 -116 10 0
22 16 27 149 50 160 28 151 28 158 9z m-4114 -34 c-2 -14 -5 -43 -9 -66 -6
-40 -5 -40 33 -52 21 -6 58 -17 83 -22 81 -20 174 -52 215 -73 33 -18 57 -21
138 -21 86 0 97 -2 97 -17 0 -24 12 -30 115 -56 50 -13 99 -27 110 -32 11 -5
57 -23 103 -40 65 -25 87 -29 102 -21 15 8 20 8 18 -1 -4 -18 58 -31 96 -20
26 7 52 4 109 -12 l75 -21 -5 -41 c-5 -38 -65 -189 -84 -209 -6 -6 -13 -6 -21
2 -7 7 -22 12 -34 12 -12 0 -41 9 -65 20 -24 11 -63 20 -86 20 -23 0 -75 13
-116 29 -41 16 -96 29 -121 29 -25 1 -55 6 -65 12 -25 13 -41 13 -41 -1 0 -5
5 -7 10 -4 6 3 10 2 10 -3 0 -10 78 -35 101 -32 25 4 54 0 69 -10 29 -18 -7
-31 -136 -45 -71 -8 -144 -17 -162 -19 -35 -4 -62 -22 -62 -40 0 -7 -6 -20
-12 -29 -12 -15 -13 -14 -13 12 0 16 4 29 9 28 5 -1 10 3 13 10 3 7 -3 10 -15
6 -17 -4 -20 0 -18 25 1 17 -2 28 -7 25 -5 -3 -7 0 -5 8 3 8 1 21 -3 31 -6 11
-4 18 7 22 8 3 13 10 10 15 -8 13 3 38 20 45 7 3 32 -1 55 -9 36 -13 40 -13
35 0 -3 8 -1 17 4 20 6 4 10 0 11 -7 0 -7 4 -4 9 7 13 31 12 38 -7 30 -37 -15
-97 -23 -115 -14 -10 5 -27 14 -38 19 -11 6 -26 10 -34 10 -7 0 -24 8 -37 18
-26 20 -90 41 -159 53 -102 17 -132 27 -146 48 -9 12 -26 21 -42 21 -49 0
-215 68 -234 95 -4 6 -65 10 -140 11 -176 2 -238 14 -238 48 0 15 174 95 228
106 51 9 57 14 57 48 0 21 6 28 24 30 15 2 21 0 16 -7 -21 -35 122 -22 209 19
56 26 82 22 79 -10z m2705 -136 c58 -24 36 -48 -58 -63 -36 -6 -93 -11 -127
-11 -55 0 -63 2 -63 19 0 20 30 31 89 33 18 1 31 6 31 14 0 34 56 38 128 8z
m-2890 -159 c22 -7 13 -35 -18 -54 -16 -10 -27 -21 -23 -24 3 -4 -8 -7 -26 -7
-19 0 -30 4 -26 10 8 12 -2 14 -87 10 -63 -2 -68 -1 -68 19 0 14 6 21 20 21
11 0 35 8 54 18 26 14 50 17 98 15 34 -3 69 -6 76 -8z m3539 -16 c64 -24 49
-49 -49 -80 -57 -17 -80 -20 -116 -13 -59 12 -76 38 -43 65 13 10 35 19 50 19
14 0 33 5 41 10 20 13 82 13 117 -1z m-3236 -112 c14 -12 29 -30 32 -39 7 -19
57 -26 57 -8 0 15 31 7 74 -18 29 -17 36 -26 31 -42 -4 -14 -2 -20 8 -20 15 0
16 -38 1 -62 -5 -9 -2 -9 12 2 14 11 14 8 -3 -11 -13 -14 -23 -33 -23 -42 0
-16 -10 -21 -36 -18 -7 1 -10 -9 -8 -24 2 -14 6 -36 8 -50 2 -14 -1 -25 -6
-25 -5 0 -7 -4 -4 -9 3 -5 7 -29 7 -55 2 -30 7 -46 15 -46 7 0 15 -3 17 -7 3
-5 -36 -8 -86 -9 -58 0 -101 -5 -117 -14 -14 -7 -41 -17 -60 -21 -19 -5 -47
-11 -62 -15 -15 -3 -43 -3 -61 0 -26 5 -36 13 -45 39 -19 52 -15 62 30 92 49
33 105 48 129 35 21 -12 158 36 167 58 3 8 -4 33 -16 56 -21 42 -59 125 -93
202 -17 40 -17 75 0 74 3 -1 18 -11 32 -23z m1863 -13 c21 -8 20 -40 -1 -49
-22 -8 -162 -35 -184 -35 -8 0 -25 14 -38 31 -36 49 -18 59 104 59 57 0 110
-3 119 -6z m2066 -67 c82 -28 12 -88 -111 -95 -77 -5 -112 9 -107 41 2 16 10
22 28 22 14 0 31 8 38 17 20 27 94 35 152 15z m-4992 -74 c-3 -18 -68 -39
-150 -50 -21 -3 -36 -9 -33 -13 3 -4 -4 -10 -14 -13 -14 -3 -18 -1 -14 9 3 9
-2 14 -15 14 -56 0 -69 30 -24 54 19 11 59 15 140 16 102 0 113 -2 110 -17z
m3574 -45 c63 -19 61 -57 -2 -58 -15 0 -31 -5 -36 -10 -17 -17 -145 -23 -173
-8 -50 27 -34 54 40 73 70 17 122 18 171 3z m-3132 -128 c28 -11 64 -19 78
-18 35 2 52 -8 52 -32 0 -36 -27 -50 -93 -49 -43 1 -54 3 -37 8 l25 7 -29 8
c-29 7 -86 56 -86 74 0 10 15 19 32 21 4 1 30 -8 58 -19z m-1870 -34 c0 -8 -7
-19 -15 -26 -16 -13 -20 -67 -7 -85 4 -6 22 -21 40 -34 17 -12 32 -26 32 -31
0 -5 -15 -12 -32 -16 -47 -10 -107 -11 -101 0 3 5 0 7 -6 5 -7 -3 -11 -8 -9
-12 5 -12 -31 -29 -44 -21 -7 4 -8 3 -4 -5 4 -6 0 -14 -9 -18 -10 -3 -21 0
-26 8 -7 12 -9 12 -9 -1 -1 -13 -2 -13 -13 0 -7 9 -20 14 -30 12 -9 -2 -20 4
-23 12 -3 9 -12 16 -20 16 -8 0 -13 3 -13 8 3 18 -2 32 -12 32 -6 0 -8 -7 -5
-17 6 -15 4 -15 -14 2 -11 10 -20 23 -19 29 0 6 3 6 6 -1 2 -7 10 -13 15 -13
6 0 9 3 5 6 -3 4 0 13 8 20 8 8 12 21 9 29 -4 8 -2 15 3 15 5 0 9 8 9 19 0 11
-5 17 -13 14 -7 -3 -13 -10 -13 -15 0 -6 -7 -7 -16 -4 -9 4 -22 2 -29 -4 -9
-8 -15 -8 -20 0 -3 5 -1 10 5 10 6 0 10 6 8 13 -2 6 2 12 7 12 6 0 9 -4 7 -9
-2 -5 3 -5 10 1 13 11 79 10 98 -2 5 -3 10 -19 10 -34 0 -22 5 -30 23 -33 29
-6 67 7 67 23 0 9 -3 9 -14 0 -11 -9 -15 -8 -20 5 -3 8 -6 22 -6 30 0 17 54
46 73 38 7 -2 20 2 27 11 7 8 21 15 31 15 10 0 21 5 24 10 8 13 25 3 25 -14z
m5700 -51 c17 -9 30 -19 30 -23 0 -15 -24 -32 -46 -32 -12 0 -35 -7 -50 -15
-33 -17 -110 -20 -149 -5 -53 20 -39 65 26 80 59 14 158 11 189 -5z m-1478
-96 c10 -5 18 -15 18 -22 0 -26 -25 -37 -81 -37 -32 0 -61 -4 -64 -10 -9 -14
-45 -12 -98 6 -54 18 -64 29 -46 50 10 12 24 14 66 9 42 -5 56 -3 70 10 13 14
27 16 66 10 28 -3 59 -11 69 -16z m-4062 -61 c0 -4 -5 -8 -11 -8 -5 0 -7 -5
-4 -10 4 -6 10 -8 15 -5 4 3 11 -1 14 -7 4 -7 4 -3 2 9 -4 20 -1 22 22 17 40
-10 44 -17 40 -78 -2 -40 1 -56 10 -56 6 0 12 -3 12 -7 0 -5 13 -9 29 -10 31
-2 101 -40 101 -55 0 -5 -4 -7 -8 -4 -5 3 -19 7 -33 10 -60 11 -225 59 -236
68 -9 7 -20 4 -37 -9 -22 -18 -22 -20 -8 -31 14 -9 14 -11 2 -9 -8 1 -14 -4
-12 -11 1 -8 -2 -11 -7 -7 -6 3 -7 13 -4 22 5 12 3 14 -8 9 -8 -4 3 8 24 28
20 20 37 42 37 49 0 6 9 25 19 41 11 16 18 36 16 46 -2 9 3 17 11 17 8 0 14
-4 14 -9z m7917 -47 c6 -1 14 -9 17 -19 3 -9 22 -26 42 -37 20 -10 43 -28 52
-40 10 -11 30 -28 45 -38 26 -17 28 -21 21 -65 -4 -26 -10 -49 -14 -52 -16
-10 -15 -71 0 -80 13 -8 13 -10 1 -10 -11 0 -12 -3 -4 -11 41 -41 -87 -125
-344 -224 -65 -25 -133 -52 -151 -60 -18 -8 -43 -15 -55 -15 -12 0 -34 -6 -49
-14 -29 -15 -52 -16 -65 -1 -4 4 -3 5 3 2 7 -4 14 -1 17 6 3 10 -3 12 -23 9
-15 -2 -31 1 -35 8 -5 8 -10 8 -21 -1 -12 -10 -13 -8 -8 7 6 16 5 17 -7 7 -20
-20 -24 -16 -26 28 0 23 -6 46 -11 51 -7 7 -7 18 0 34 9 18 7 29 -6 49 -15 22
-22 25 -47 20 -45 -10 -86 11 -91 45 -8 53 13 83 83 114 172 78 190 88 187
104 -2 13 4 17 27 16 17 -1 50 3 75 8 49 10 277 116 316 147 13 11 32 18 42
16 9 -2 22 -4 29 -4z m-7590 -46 c5 -72 9 -81 37 -76 4 1 14 -4 22 -10 12 -10
13 -9 8 5 -5 12 -2 15 10 10 12 -5 15 -2 10 10 -5 13 1 16 30 16 19 0 50 -6
68 -14 18 -8 67 -27 108 -42 41 -15 93 -41 114 -58 22 -16 36 -24 31 -16 -5 8
6 4 23 -9 18 -12 29 -27 26 -33 -4 -7 -2 -8 4 -4 7 4 12 1 13 -6 1 -7 4 -2 8
12 5 17 15 26 33 28 23 3 26 -1 34 -45 6 -33 15 -49 27 -51 13 -3 17 3 17 23
0 21 4 26 17 21 9 -4 35 -11 58 -16 23 -5 64 -19 91 -30 27 -12 80 -32 118
-46 38 -13 76 -30 85 -38 9 -8 28 -17 43 -21 15 -4 32 -13 39 -21 10 -12 15
-12 36 1 33 22 55 7 68 -46 13 -56 35 -64 35 -12 0 22 -5 44 -10 49 -8 8 7 17
47 32 32 12 76 30 98 41 44 21 57 11 36 -28 -6 -11 -11 -40 -11 -64 0 -51 -19
-40 204 -117 88 -30 111 -42 118 -61 12 -31 6 -85 -9 -82 -6 2 -30 -4 -53 -12
-23 -8 -53 -12 -67 -9 -44 11 -62 -55 -21 -77 19 -10 20 -13 6 -23 -12 -9 -28
-57 -32 -98 -1 -5 -4 -8 -8 -8 -5 0 -9 3 -10 8 -3 11 -45 42 -57 42 -6 0 -8 7
-5 15 4 11 -1 15 -17 15 -14 0 -19 3 -13 8 9 5 8 11 -2 20 -9 8 -14 9 -14 2 0
-7 -13 2 -30 18 -31 32 -42 83 -23 115 9 17 11 17 26 3 11 -12 17 -13 21 -3 3
7 7 4 11 -9 7 -23 36 -26 43 -6 2 7 10 12 17 12 21 0 35 31 24 53 -6 9 -14 15
-20 12 -5 -4 -9 -4 -9 0 0 3 11 10 25 15 14 5 25 14 25 20 0 13 3 13 -66 -10
-32 -12 -78 -21 -101 -22 -23 -1 -39 -6 -37 -10 3 -4 -9 -14 -25 -23 -33 -17
-101 -21 -101 -5 0 5 6 7 14 4 7 -3 16 2 19 10 4 10 1 13 -8 10 -7 -3 -27 1
-43 10 -16 8 -32 12 -36 9 -3 -4 -6 -1 -6 5 0 17 -80 59 -129 67 -24 4 -59 14
-78 22 -49 20 -119 32 -135 22 -10 -7 -8 -9 6 -9 11 0 17 -3 13 -6 -3 -3 -19
-3 -36 1 -24 5 -31 12 -31 30 0 13 6 28 13 32 7 4 18 24 23 43 10 32 9 36 -8
36 -12 0 -17 -5 -13 -15 3 -9 3 -12 -1 -8 -4 4 -13 2 -21 -4 -7 -6 -13 -8 -13
-4 0 4 -8 -2 -17 -14 -20 -23 -97 -39 -107 -22 -4 5 -1 13 4 16 7 5 5 12 -7
20 -13 10 -20 10 -25 2 -4 -7 -11 -2 -17 13 -5 14 -10 21 -10 17 -1 -5 -6 -5
-11 -2 -7 4 -7 12 0 25 6 12 7 21 0 25 -6 4 -6 15 0 31 15 38 12 46 -11 39
-15 -5 -19 -4 -14 5 4 7 -4 4 -18 -5 -15 -9 -31 -14 -37 -10 -5 3 -10 -1 -10
-10 0 -11 5 -15 14 -12 8 3 17 3 21 -1 4 -4 12 -7 18 -7 10 0 33 -53 25 -60
-2 -3 -22 4 -43 15 -22 11 -51 20 -65 20 -14 0 -62 11 -107 24 -71 20 -83 21
-96 9 -12 -12 -19 -13 -36 -4 -25 14 -26 24 -5 45 8 9 17 33 20 53 2 21 2 32
-2 26 -9 -21 -23 -15 -19 7 2 11 0 18 -5 15 -4 -3 -7 -13 -6 -23 3 -20 -38
-62 -60 -62 -10 0 -12 5 -8 13 6 9 4 9 -7 1 -22 -16 -43 -11 -46 11 -3 19 -3
19 5 1 7 -17 9 -17 15 -3 8 22 -14 27 -38 8 -18 -15 -19 -15 -6 1 12 16 10 19
-10 27 -13 5 -18 10 -10 10 11 1 10 6 -2 25 -11 16 -16 44 -15 84 2 54 4 60
23 58 12 0 22 -5 22 -11z m2573 -24 c35 -10 38 -39 5 -51 -68 -26 -231 -20
-249 8 -9 15 12 34 45 42 42 10 165 10 199 1z m1825 -33 c39 -14 62 -35 50
-47 -27 -25 -251 -35 -278 -12 -23 18 -21 38 4 52 18 9 27 7 51 -11 21 -16 32
-19 37 -11 12 20 75 50 91 44 8 -3 29 -10 45 -15z m4839 -40 c24 -34 20 -38
-33 -38 -42 0 -124 -32 -568 -226 -285 -124 -610 -266 -723 -316 -113 -50
-250 -111 -305 -135 -55 -24 -122 -55 -150 -68 -110 -52 -151 -67 -180 -66
-17 1 -40 -6 -50 -14 -19 -16 -19 -16 2 -6 12 6 28 11 35 11 7 -1 -10 -11 -39
-23 -29 -13 -55 -26 -59 -30 -4 -4 -14 -7 -23 -7 -14 0 -14 2 -1 11 12 9 12
10 -3 5 -10 -3 -24 -6 -30 -6 -7 0 -6 -5 3 -10 11 -8 8 -9 -12 -4 -20 4 -27 1
-32 -14 -8 -23 -49 -44 -71 -36 -15 6 -75 -17 -190 -71 -77 -37 -126 -55 -144
-54 -16 0 108 62 204 101 63 25 183 78 304 135 51 23 96 43 99 43 13 0 502
214 1172 514 399 178 737 324 752 325 17 1 32 -7 42 -21z m-4754 -314 c27 -14
50 -29 52 -32 4 -9 198 -72 221 -72 32 0 18 -27 -20 -38 -60 -18 -179 -2 -170
22 3 8 -4 11 -24 8 -26 -4 -40 10 -21 21 9 5 -13 -1 -32 -9 -7 -3 -20 2 -29
10 -9 9 -21 16 -27 16 -21 0 -90 43 -90 56 0 10 40 29 88 43 1 1 25 -11 52
-25z m2110 -2 c0 -24 7 -29 63 -48 58 -19 62 -22 65 -54 l4 -33 -27 17 c-14 9
-32 15 -38 13 -7 -3 1 -10 16 -16 l28 -11 -3 -85 c-2 -69 0 -86 12 -90 10 -3
15 -18 15 -46 l0 -41 -100 -54 c-103 -55 -404 -187 -510 -223 -33 -11 -78 -29
-100 -39 -56 -28 -88 -24 -89 9 -1 18 3 25 11 22 7 -3 13 0 13 7 0 6 4 9 8 6
5 -3 9 1 9 8 0 8 -6 12 -14 9 -7 -3 -13 -2 -13 2 0 11 27 34 34 28 3 -4 6 0 6
7 0 22 71 102 86 96 8 -3 14 0 14 6 0 9 3 9 12 0 16 -16 28 -15 28 2 0 8 9 17
19 21 11 3 24 18 29 33 7 21 20 31 50 40 22 7 51 21 64 32 l23 20 -35 -11
c-19 -6 -62 -24 -95 -40 -85 -41 -129 -39 -153 7 -6 11 -30 26 -54 33 -60 18
-71 25 -74 46 -1 10 -8 21 -14 25 -25 15 34 51 190 115 109 45 354 165 375
185 22 20 39 24 102 27 40 1 43 0 43 -25z m-4625 -283 c89 -31 98 -37 92 -65
-2 -13 0 -21 4 -18 5 2 35 -9 69 -26 l60 -30 0 25 c0 18 5 25 19 25 24 0 37
-17 46 -60 13 -61 45 -83 45 -30 0 19 -7 34 -20 42 -42 26 -17 24 81 -9 138
-45 139 -46 135 -90 -1 -20 -8 -39 -14 -41 -7 -2 -10 -8 -6 -13 3 -5 -10 -16
-30 -24 -46 -19 -67 -19 -41 1 11 8 25 12 32 10 7 -3 15 -1 18 4 10 17 -34 11
-75 -10 -21 -11 -45 -32 -52 -47 -11 -23 -19 -27 -43 -25 -53 6 -112 40 -120
70 -9 35 -33 62 -51 55 -8 -3 -14 0 -14 6 0 6 -11 11 -25 11 -14 0 -69 14
-123 31 -151 49 -150 49 -146 67 13 67 16 73 49 89 24 11 35 24 35 38 0 17 7
35 15 35 0 0 27 -9 60 -21z m4845 -147 c0 -4 -14 -13 -31 -21 -21 -9 -28 -18
-24 -29 4 -12 3 -12 -9 -3 -16 14 -32 -2 -20 -21 4 -6 3 -8 -3 -5 -6 4 -18 -2
-28 -13 -21 -24 -35 -26 -35 -5 0 9 -6 12 -15 9 -9 -4 -15 -11 -14 -18 3 -26
-2 -35 -20 -31 -15 3 -18 0 -14 -12 5 -13 2 -15 -12 -9 -11 4 -16 4 -12 0 9
-9 -182 -106 -194 -98 -4 2 -10 0 -14 -6 -8 -13 -25 -13 -25 0 0 6 10 14 22
19 19 7 19 8 4 14 -10 4 -14 11 -11 17 3 5 -1 10 -9 10 -9 0 -13 -6 -10 -14 3
-7 -2 -16 -12 -20 -12 -4 -15 -2 -10 9 3 9 0 15 -9 15 -8 0 -15 -4 -15 -10 0
-5 -7 -10 -15 -10 -30 0 -14 17 43 45 110 55 357 166 397 180 69 23 95 25 95
7z m6410 -102 c31 -31 24 -62 -27 -124 l-24 -28 39 -34 c72 -61 103 -162 83
-270 -17 -89 -57 -161 -130 -234 -107 -106 -232 -166 -372 -177 -235 -18 -391
96 -392 287 0 36 5 82 12 104 15 45 11 50 -51 60 -44 7 -66 42 -48 76 32 60
100 83 178 61 30 -9 37 -7 71 24 101 92 258 155 385 156 42 0 76 4 76 8 0 14
73 93 94 101 38 16 85 11 106 -10z m-410 -16 c21 -24 0 -65 -45 -91 -50 -28
-69 -29 -95 -3 -19 19 -19 22 -5 50 27 53 116 80 145 44z m-7770 -119 c0 -27
4 -35 18 -35 33 0 116 -38 123 -56 11 -27 10 -34 -1 -34 -5 0 -9 5 -7 11 1 7
-24 20 -56 30 l-59 17 19 -20 c10 -11 31 -27 46 -35 27 -14 28 -16 25 -86 -2
-51 -7 -71 -15 -69 -7 1 -13 -3 -13 -9 0 -6 6 -9 12 -7 7 3 18 -1 25 -8 15
-15 17 -28 3 -19 -5 3 -10 1 -10 -4 0 -6 6 -11 13 -11 8 0 13 -13 12 -36 0
-34 -4 -39 -55 -67 -148 -81 -562 -252 -587 -243 -8 3 -12 2 -9 -2 3 -5 -12
-14 -32 -21 -20 -8 -69 -29 -108 -47 -84 -40 -94 -41 -93 -11 0 12 3 16 6 10
7 -20 23 -15 16 5 -6 15 -5 15 10 3 16 -13 17 -12 8 12 -7 18 -7 28 0 33 7 4
6 10 -1 19 -8 9 -6 14 5 19 8 3 15 12 15 21 0 9 9 15 24 15 13 0 27 7 30 16 3
8 11 12 17 9 6 -4 13 2 16 13 6 25 34 37 45 20 5 -9 8 -8 8 6 0 11 3 16 7 12
10 -10 73 55 73 76 0 20 36 32 80 26 17 -3 28 0 27 6 -1 6 4 10 11 8 8 -1 11
2 8 6 -7 12 19 34 69 60 22 12 37 21 34 22 -8 0 -175 -69 -249 -104 -69 -33
-105 -33 -125 -3 -11 17 -112 75 -141 82 -1 0 -5 15 -9 33 -6 30 -4 33 32 48
21 9 66 29 99 45 34 16 64 29 68 29 10 0 369 179 402 200 17 11 49 22 72 24
22 2 48 9 59 15 29 17 33 13 33 -24z m-1970 -49 c30 -14 62 -26 70 -26 23 -1
54 -27 38 -32 -8 -3 -5 -9 10 -17 20 -11 23 -10 20 6 -3 16 4 18 52 18 30 0
65 4 77 8 20 7 22 4 25 -29 3 -35 5 -37 78 -66 41 -17 114 -49 163 -71 84 -39
87 -42 87 -74 l0 -33 -54 24 c-47 21 -57 22 -67 10 -6 -8 -26 -14 -43 -14 -31
0 -31 1 16 27 27 14 47 27 45 29 -5 5 -165 -54 -197 -74 -19 -12 -51 -22 -72
-22 -35 0 -51 4 -125 36 -17 8 -38 14 -47 14 -18 0 -23 45 -6 55 13 8 1 35
-15 35 -8 0 -17 -9 -20 -21 -6 -18 -12 -20 -43 -14 -20 4 -49 13 -64 21 -15 8
-40 14 -55 14 -27 0 -128 31 -165 51 -23 13 -24 66 -2 71 9 2 22 19 28 38 8
25 21 40 49 53 24 11 37 24 37 37 0 18 2 18 63 -5 34 -13 87 -35 117 -49z
m-590 -81 c14 -7 25 -19 25 -27 1 -7 7 -12 14 -10 8 2 21 0 30 -4 9 -4 19 -8
23 -8 3 -1 10 -5 15 -10 5 -5 3 -6 -4 -2 -8 4 -13 1 -13 -8 0 -9 9 -16 21 -16
13 0 18 4 13 13 -4 6 4 2 18 -10 13 -13 29 -23 35 -23 7 0 15 -10 19 -22 4
-13 13 -27 20 -33 8 -5 14 -23 14 -40 0 -77 0 -77 -18 -70 -9 4 -23 8 -29 8
-7 0 -13 4 -13 8 0 4 -10 5 -22 1 -13 -3 -19 -1 -15 6 5 7 -4 9 -25 5 -29 -4
-31 -3 -19 11 8 9 11 19 7 23 -3 3 -6 1 -6 -5 0 -7 -4 -12 -10 -12 -13 0 -60
52 -54 61 2 4 -7 6 -21 4 -14 -1 -25 2 -25 7 0 6 -7 8 -14 5 -10 -4 -13 -1
-10 8 4 9 -3 16 -20 21 -27 6 -35 31 -16 50 8 8 6 15 -5 24 -22 19 -19 28 18
44 40 18 37 18 67 1z m2870 -248 c0 -7 -16 -21 -35 -31 -20 -11 -41 -31 -48
-44 -7 -14 -19 -28 -27 -30 -11 -4 -10 -1 3 12 25 25 21 40 -5 22 -12 -9 -29
-16 -37 -16 -17 0 -119 -49 -127 -61 -8 -14 2 -11 40 12 26 15 36 17 36 7 -1
-30 -67 -77 -89 -64 -6 4 -11 0 -11 -9 0 -11 -5 -15 -15 -11 -9 3 -15 0 -15
-8 0 -12 -13 -22 -40 -31 -3 -1 -13 -5 -22 -9 -10 -5 -25 -6 -33 -2 -8 3 -15
0 -15 -5 0 -7 -9 -9 -21 -6 -21 6 -50 -6 -77 -30 -17 -16 -30 -17 -14 -1 18
18 14 31 -8 25 -11 -3 -23 0 -26 5 -4 6 -11 4 -16 -7 -7 -12 -6 -21 2 -28 10
-9 12 -8 7 5 -4 12 -2 15 9 11 18 -7 18 -19 0 -26 -8 -3 -20 1 -27 9 -7 9 -20
13 -30 11 -12 -3 -16 0 -12 9 5 13 17 18 36 15 5 -1 6 3 2 9 -5 9 17 20 140
75 56 25 130 58 195 88 75 34 139 59 160 61 8 1 25 8 38 14 12 7 22 9 22 5 0
-4 4 -3 8 3 6 9 41 33 50 34 1 0 2 -6 2 -13z m-1785 -53 c-15 -11 -14 -16 16
-48 18 -20 38 -36 45 -36 22 0 71 -55 78 -86 4 -16 8 -48 11 -71 4 -38 2 -42
-23 -51 -35 -12 -71 1 -67 25 4 25 -12 42 -35 36 -14 -4 -20 0 -20 13 0 9 -3
14 -6 11 -4 -4 -16 3 -26 15 -12 15 -22 19 -26 11 -11 -17 -51 3 -62 32 -6 15
-14 23 -20 20 -5 -3 -10 -1 -10 5 0 6 -5 8 -11 5 -6 -4 -10 -1 -8 6 3 29 -2
38 -18 33 -13 -4 -10 1 7 17 14 12 18 20 9 17 -9 -4 -16 -1 -16 8 0 9 12 14
34 14 18 0 33 4 33 9 0 18 43 24 55 8 9 -12 14 -13 28 -2 10 7 17 17 16 21 -4
21 2 26 17 13 14 -12 14 -14 -1 -25z"/>
<path d="M16530 8793 c-216 -34 -318 -67 -705 -231 -172 -73 -511 -245 -597
-303 -119 -82 -296 -258 -370 -370 -103 -154 -189 -356 -232 -539 -78 -338
-27 -737 136 -1065 236 -474 691 -815 1213 -911 138 -26 393 -26 530 -1 125
24 392 113 685 229 420 167 541 239 746 443 135 135 203 226 288 385 49 92
125 313 147 425 21 108 16 549 -6 586 -3 3 -7 21 -9 40 -3 19 -10 48 -15 64
-6 17 -27 80 -47 140 -20 61 -40 115 -44 120 -4 6 -11 20 -14 32 -14 45 -152
273 -193 318 -10 11 -43 49 -73 84 -56 66 -231 226 -280 256 -9 6 -41 26 -71
46 -63 42 -198 115 -249 134 -273 102 -396 126 -646 124 -93 -1 -180 -4 -194
-6z m625 -595 c19 -22 25 -40 24 -63 -3 -25 4 -38 30 -61 28 -25 33 -37 33
-71 -1 -32 3 -42 19 -46 37 -10 23 -46 -26 -68 -25 -11 -45 -24 -45 -28 0 -17
31 -20 70 -6 51 18 73 10 67 -22 -3 -16 2 -27 14 -34 28 -15 51 -66 44 -98 -5
-23 -1 -29 19 -39 27 -12 59 -73 50 -96 -3 -8 4 -19 16 -26 16 -9 20 -18 16
-34 -4 -16 1 -29 19 -44 29 -25 40 -61 32 -102 -5 -23 -2 -30 13 -35 29 -9 60
-54 60 -86 0 -16 9 -38 20 -49 22 -22 27 -65 9 -76 -7 -4 0 -12 18 -19 64 -27
81 -135 23 -143 -13 -2 -35 -13 -49 -23 -13 -10 -31 -19 -41 -19 -27 0 -61 45
-67 89 -5 38 -8 41 -38 41 -34 0 -45 13 -45 51 0 10 4 19 9 19 22 0 19 34 -5
63 -22 27 -25 38 -22 79 4 37 2 48 -9 48 -27 0 -63 47 -63 84 0 34 -1 35 -35
29 -31 -5 -36 -3 -45 23 -10 25 -8 30 12 46 23 17 23 17 3 32 -15 11 -20 26
-20 65 0 40 -4 52 -17 57 -29 9 -58 55 -58 90 0 19 -5 34 -11 34 -5 0 -19 20
-30 45 -18 40 -22 43 -39 33 -14 -9 -22 -9 -34 1 -27 22 -20 51 14 58 17 3 30
7 30 10 0 2 -16 20 -36 38 -32 31 -36 38 -30 70 4 19 3 35 -2 35 -19 0 -60 51
-64 80 -6 38 7 60 35 60 12 0 28 9 35 20 19 32 65 26 97 -12z m580 -1278 c64
-24 86 -87 56 -156 -12 -25 -21 -55 -21 -65 0 -24 -27 -25 -52 -3 -16 16 -19
15 -35 -5 -24 -30 -51 -19 -55 22 -2 25 -8 32 -24 33 -43 2 -58 30 -29 54 8 7
15 23 15 35 0 32 36 73 73 84 43 12 42 12 72 1z"/>
<path d="M17813 3781 c-99 -34 -178 -107 -208 -191 -22 -61 -19 -107 10 -156
86 -147 378 -104 481 72 111 189 -59 353 -283 275z m136 -51 c49 -14 88 -55
96 -101 16 -94 -88 -199 -203 -206 -170 -11 -225 158 -86 263 63 48 128 63
193 44z"/>
</g>
</svg>
